<svg xmlns="http://www.w3.org/2000/svg" viewBox="0 0 33 30"><defs><style>.cls-1{fill:#ffffff;}</style></defs><title>Asset 65</title><g id="Layer_2" data-name="Layer 2"><g id="My_Compared_Properties" data-name="My Compared Properties"><path class="cls-1" d="M15.66.09,32.42,7.71A1,1,0,0,1,33,8.6V27.67A2.35,2.35,0,0,1,30.64,30H25.79V25.74H21.46V30H16.75a2.48,2.48,0,0,1-2.5-2.46V1A1,1,0,0,1,15.66.09ZM10.1,6.82V27.27A2.76,2.76,0,0,1,7.32,30H2.56A2.54,2.54,0,0,1,0,27.48V6.82a1,1,0,0,1,1-1H9.1A1,1,0,0,1,10.1,6.82ZM7.21,8.69H2.88v4.26H7.21Zm22.9,1.42h-5v5h5Zm-7.93,0h-5v5h5Zm-15,5.68H2.88v4.26H7.21Zm22.9,2.13h-5v5h5Zm-7.93,0h-5v5h5Zm-15,5H2.88v4.26H7.21Z"/></g></g></svg>